<?xml version="1.0" standalone="no"?>
<!DOCTYPE svg PUBLIC "-//W3C//DTD SVG 20010904//EN"
 "http://www.w3.org/TR/2001/REC-SVG-20010904/DTD/svg10.dtd">
<svg version="1.0" xmlns="http://www.w3.org/2000/svg"
 width="910.000000pt" height="130.000000pt" viewBox="0 0 910.000000 130.000000"
 preserveAspectRatio="xMidYMid meet">

<g transform="translate(0.000000,130.000000) scale(0.100000,-0.100000)"
fill="#000000" stroke="none">
<path d="M1826 1161 c-10 -16 9 -46 85 -127 150 -163 195 -272 153 -372 -20
-49 -56 -86 -129 -134 -74 -50 -41 -41 91 22 193 93 266 207 219 340 -44 125
-223 265 -354 277 -37 4 -61 2 -65 -6z"/>
<path d="M3680 957 c-73 -17 -132 -49 -181 -98 -60 -60 -83 -118 -83 -214 -1
-68 3 -88 27 -133 35 -66 87 -119 157 -157 52 -28 62 -30 165 -30 98 0 116 3
166 26 52 25 129 89 129 108 0 5 -13 14 -29 19 -26 9 -32 7 -67 -29 -50 -51
-111 -74 -199 -74 -156 1 -278 116 -279 265 0 75 19 125 67 178 65 70 106 87
212 87 101 0 151 -19 198 -75 23 -27 28 -29 51 -18 36 16 33 30 -20 76 -75 67
-202 95 -314 69z"/>
<path d="M160 640 l0 -320 35 0 35 0 0 120 0 120 148 0 c133 0 152 2 197 24
58 27 78 47 100 99 42 101 -4 210 -109 258 -35 16 -67 19 -223 19 l-183 0 0
-320z m370 254 c48 -19 90 -82 90 -134 0 -50 -37 -107 -85 -130 -35 -17 -62
-20 -173 -20 l-132 0 0 150 0 150 130 0 c96 0 140 -4 170 -16z"/>
<path d="M820 640 l0 -320 35 0 35 0 0 120 0 120 113 0 112 0 90 -120 90 -119
43 -1 43 0 -92 121 c-70 93 -88 123 -78 130 8 5 20 9 26 9 21 0 95 73 110 107
15 38 17 101 4 136 -16 40 -73 99 -116 118 -34 16 -68 19 -227 19 l-188 0 0
-320z m396 244 c50 -37 69 -72 69 -124 0 -52 -19 -87 -69 -124 -24 -19 -45
-21 -177 -24 l-149 -4 0 152 0 151 149 -3 c133 -3 153 -5 177 -24z"/>
<path d="M2548 728 c-4 -252 -10 -279 -62 -328 -35 -32 -141 -40 -211 -17 -45
16 -46 16 -54 -6 -5 -12 -7 -25 -4 -29 8 -14 106 -38 152 -38 114 1 188 40
225 119 19 42 21 67 24 289 l4 242 -35 0 -35 0 -4 -232z"/>
<path d="M2802 643 l3 -318 253 -3 252 -2 0 30 0 30 -215 0 -215 0 0 120 0
120 186 0 185 0 -3 28 -3 27 -182 3 -183 2 0 115 0 115 210 0 210 0 0 25 0 25
-250 0 -250 0 2 -317z"/>
<path d="M4110 935 l0 -25 135 0 135 0 0 -295 0 -295 35 0 35 0 0 295 0 295
135 0 135 0 0 25 0 25 -305 0 -305 0 0 -25z"/>
<path d="M4901 656 c-77 -167 -144 -311 -147 -320 -6 -15 2 -17 70 -14 l77 3
33 75 33 75 135 3 135 3 34 -81 34 -80 77 0 77 0 -35 78 c-19 42 -85 186 -147
320 l-112 242 -61 0 -61 0 -142 -304z m258 38 l50 -119 -101 -3 c-55 -1 -103
-1 -105 2 -4 3 80 215 94 239 7 12 9 10 62 -119z"/>
<path d="M5540 640 l0 -320 75 0 75 0 0 320 0 320 -75 0 -75 0 0 -320z"/>
<path d="M5850 640 l0 -320 70 0 69 0 3 108 3 107 71 3 71 3 81 -111 82 -110
80 0 c44 0 80 1 80 3 0 1 -38 54 -85 117 -47 63 -85 117 -85 120 1 3 20 17 44
31 104 63 115 209 22 301 -61 61 -90 68 -308 68 l-198 0 0 -320z m357 205 c87
-36 86 -169 -2 -194 -36 -10 -169 -13 -197 -5 -16 5 -18 19 -18 103 0 54 3
101 7 105 12 12 176 5 210 -9z"/>
<path d="M6480 910 l0 -49 123 -3 122 -3 3 -268 2 -267 70 0 70 0 2 268 3 267
117 0 118 0 0 53 0 52 -315 0 -315 0 0 -50z"/>
<path d="M7210 640 l0 -321 73 3 72 3 0 315 0 315 -72 3 -73 3 0 -321z"/>
<path d="M7510 640 l0 -320 75 0 75 0 2 212 3 211 95 -156 95 -157 40 0 40 0
98 157 97 157 0 -212 0 -212 75 0 75 0 0 320 0 321 -82 -3 -81 -3 -107 -173
c-59 -95 -110 -175 -112 -178 -3 -2 -54 77 -114 176 l-109 180 -82 0 -83 0 0
-320z"/>
<path d="M8440 640 l0 -320 260 0 260 0 0 55 0 55 -190 0 -190 0 0 85 0 85
160 0 160 0 0 50 0 50 -160 0 -161 0 3 78 c2 60 6 77 18 78 8 1 90 2 183 3
l167 1 0 50 0 50 -255 0 -255 0 0 -320z"/>
<path d="M1743 744 c-94 -53 -178 -131 -204 -189 -37 -81 -19 -172 51 -257 73
-88 275 -188 381 -188 62 0 62 24 2 79 -211 191 -243 224 -267 273 -55 109
-20 214 98 299 58 43 32 35 -61 -17z"/>
</g>
</svg>
